<?xml version="1.0" encoding="UTF-8"?><svg xmlns="http://www.w3.org/2000/svg" viewBox="0 0 620 111.24"><defs><style>.u{fill:#ffd766;}</style></defs><g id="a"/><g id="b"/><g id="c"/><g id="d"/><g id="e"/><g id="f"/><g id="g"/><g id="h"/><g id="i"/><g id="j"/><g id="k"/><g id="l"/><g id="m"/><g id="n"/><g id="o"/><g id="p"/><g id="q"/><g id="r"/><g id="s"/><g id="t"><g><path class="u" d="M97.42,69.23l7.08,34.97c.38,1.9-1.74,3.29-3.33,2.19l-27.51-19.14c-.74-.51-1.71-.51-2.45,0l-27.51,19.14c-1.59,1.1-3.71-.29-3.33-2.19l7.08-34.97c.16-.8-.15-1.63-.79-2.13l-26.04-20.03c-1.51-1.16-.87-3.58,1.03-3.83l33.75-4.45c.75-.1,1.39-.58,1.69-1.28l13.39-31.04c.75-1.73,3.19-1.73,3.94,0l13.39,31.04c.3,.69,.94,1.18,1.69,1.28l33.75,4.45c1.89,.25,2.54,2.66,1.03,3.83l-26.04,20.03c-.65,.5-.96,1.32-.79,2.13Z"/><path class="u" d="M216.94,69.23l7.08,34.97c.38,1.9-1.74,3.29-3.33,2.19l-27.51-19.14c-.74-.51-1.71-.51-2.45,0l-27.51,19.14c-1.59,1.1-3.71-.29-3.33-2.19l7.08-34.97c.16-.8-.15-1.63-.79-2.13l-26.04-20.03c-1.51-1.16-.87-3.58,1.03-3.83l33.75-4.45c.75-.1,1.39-.58,1.69-1.28l13.39-31.04c.75-1.73,3.19-1.73,3.94,0l13.39,31.04c.3,.69,.94,1.18,1.69,1.28l33.75,4.45c1.89,.25,2.54,2.66,1.03,3.83l-26.04,20.03c-.65,.5-.96,1.32-.79,2.13Z"/><path class="u" d="M332.56,69.23l7.08,34.97c.38,1.9-1.74,3.29-3.33,2.19l-27.51-19.14c-.74-.51-1.71-.51-2.45,0l-27.51,19.14c-1.59,1.1-3.71-.29-3.33-2.19l7.08-34.97c.16-.8-.15-1.63-.79-2.13l-26.04-20.03c-1.51-1.16-.87-3.58,1.03-3.83l33.75-4.45c.75-.1,1.39-.58,1.69-1.28l13.39-31.04c.75-1.73,3.19-1.73,3.94,0l13.39,31.04c.3,.69,.94,1.18,1.69,1.28l33.75,4.45c1.89,.25,2.54,2.66,1.03,3.83l-26.04,20.03c-.65,.5-.96,1.32-.79,2.13Z"/><path class="u" d="M454.96,69.23l7.08,34.97c.38,1.9-1.74,3.29-3.33,2.19l-27.51-19.14c-.74-.51-1.71-.51-2.45,0l-27.51,19.14c-1.59,1.1-3.71-.29-3.33-2.19l7.08-34.97c.16-.8-.15-1.63-.79-2.13l-26.04-20.03c-1.51-1.16-.87-3.58,1.03-3.83l33.75-4.45c.75-.1,1.39-.58,1.69-1.28l13.39-31.04c.75-1.73,3.19-1.73,3.94,0l13.39,31.04c.3,.69,.94,1.18,1.69,1.28l33.75,4.45c1.89,.25,2.54,2.66,1.03,3.83l-26.04,20.03c-.65,.5-.96,1.32-.79,2.13Z"/><path class="u" d="M572.56,69.23l7.08,34.97c.38,1.9-1.74,3.29-3.33,2.19l-27.51-19.14c-.74-.51-1.71-.51-2.45,0l-27.51,19.14c-1.59,1.1-3.71-.29-3.33-2.19l7.08-34.97c.16-.8-.15-1.63-.79-2.13l-26.04-20.03c-1.51-1.16-.87-3.58,1.03-3.83l33.75-4.45c.75-.1,1.39-.58,1.69-1.28l13.39-31.04c.75-1.73,3.19-1.73,3.94,0l13.39,31.04c.3,.69,.94,1.18,1.69,1.28l33.75,4.45c1.89,.25,2.54,2.66,1.03,3.83l-26.04,20.03c-.65,.5-.96,1.32-.79,2.13Z"/></g></g></svg>