<svg xmlns="http://www.w3.org/2000/svg" viewBox="0 0 300 300"><defs><style>.cls-1{fill:#4285f4;}.cls-2{fill:#0f9d58;}.cls-3{fill:#f4b400;}.cls-4{fill:#db4437;}</style></defs><g id="Capa_11" data-name="Capa 11"><path class="cls-1" d="M153.6,123.76H289.16s19.17,79-40.75,135.83l-46.53-36s23.69-13,29.49-43.35H153.6Z"/><path class="cls-2" d="M201.88,223.59c-18.51,12.81-98.79,34.24-130.1-46.17L23,214.84C35.5,238.66,57.34,268,101.43,286.11c49.11,15.17,99.87,15.17,147-26.52Z"/><path class="cls-3" d="M71.78,177.42c-1.28-5.17-8.83-27,.15-54.07L23,86c-11.91,25-26.94,74.08,0,128.88Z"/><path class="cls-4" d="M71.93,123.35c11-41.11,75.85-85,135.07-39.73l42.33-42.27C175.37-22,68.06-1.07,23,86Z"/></g></svg>