<svg xmlns="http://www.w3.org/2000/svg" viewBox="0 0 300 300"><defs><style>.cls-1{fill:#9d8be8;stroke:#5c28ff;stroke-miterlimit:10;stroke-width:3px;}.cls-2{fill:#5c28ff;}.cls-3{fill:#fff;}.cls-4{fill:#e9e9f2;}</style></defs><g id="Capa_3" data-name="Capa 3"><rect class="cls-1" x="7.37" y="45.71" width="285.91" height="209.23" rx="15"/><path class="cls-2" d="M21.72,45.06H277.63a15,15,0,0,1,15,15V92a0,0,0,0,1,0,0H6.72a0,0,0,0,1,0,0V60.06A15,15,0,0,1,21.72,45.06Z"/><circle class="cls-3" cx="38.82" cy="68.53" r="18.45"/><polygon class="cls-4" points="127.79 91.99 95.95 91.99 64.11 47.77 95.95 47.77 127.79 91.99"/><polygon class="cls-3" points="127.79 91.99 95.95 91.99 64.11 136.22 95.95 136.22 127.79 91.99"/><polygon class="cls-3" points="64.11 91.99 32.27 91.99 9.31 123.88 9.31 136.22 32.27 136.22 64.11 91.99"/><polygon class="cls-3" points="191.47 91.99 159.63 91.99 127.79 136.22 159.63 136.22 191.47 91.99"/><polygon class="cls-3" points="255.15 91.99 223.31 91.99 191.47 136.22 223.31 136.22 255.15 91.99"/><polygon class="cls-3" points="291.29 91.99 285 91.99 253.16 136.22 285 136.22 291.29 127.48 291.29 91.99"/><polygon class="cls-4" points="191.47 91.99 159.63 91.99 127.79 47.77 159.63 47.77 191.47 91.99"/><polygon class="cls-4" points="255.15 91.99 223.31 91.99 191.47 47.77 223.31 47.77 255.15 91.99"/><path class="cls-4" d="M271.8,47.77H253.16L285,92h6.29V67.26A19.49,19.49,0,0,0,271.8,47.77Z"/></g></svg>