<svg xmlns="http://www.w3.org/2000/svg" viewBox="0 0 300 300"><defs><style>.cls-1{fill:#ff0;}.cls-1,.cls-2,.cls-3,.cls-4{stroke:#000;stroke-linejoin:round;stroke-width:4px;}.cls-2{fill:#ffdbc4;}.cls-3{fill:#333;}.cls-4{fill:none;}</style></defs><g id="Capa_7" data-name="Capa 7"><path class="cls-1" d="M182.46,254.44h79.75c12.41-2.94,13-17.48,5.28-25.78-8-6.35-8-7.08-13.15-14.63s-2.4-11.35-2.4-11.35l-5.5-70.89c0-74.27-19.22-124.55-96.26-126.23C68.66,5.56,53.57,79,53.57,86.09v35.66c0,14.26-7.56,15.52-17.2,25.16C24.62,156.14,28.84,170.4,33,174.6s29.36,22.65,10.49,45.72c-26,17.28-5.87,34.12,0,34.12H78.43"/><path class="cls-2" d="M127.12,228.66l-5.12-30h97.53l10.62-40.58s-6.71-6-8.38-8.65-2.8-12.79-.56-16.52,8.94-8.39,28,0c0,0,5.17,2.24,5.17,7v55c0,4-9.59,30.88-32.8,32.56s-31.74,1.12-31.74,1.12"/><path class="cls-3" d="M186.11,218.5s-10.12-1.38-16.36-.1-15.56,11.29-15.56,11.29c-10-17.9-21.35-11.29-21.35-11.29L122.49,237l7.1,33.68s-8.21,3.79-11,23.36h62.36s2.24-14-10.35-24.89c0,0,26.21-22.35,16.34-50.3-2.23-6.34-6.32-13-13-19.67"/><line class="cls-4" x1="223.55" y1="206.69" x2="219.53" y2="198.68"/><path class="cls-2" d="M90.9,208.43,77.33,258.49s-15,.84-15,21.81H88.1s8.39.84,10.91-8.67c0,0,24.88-43.62,29.92-53.13C138.43,205.64,108.23,178.51,90.9,208.43Z"/><path class="cls-2" d="M133.68,65s20.13,22.93,85.85,20.41v61.24s-2.52,50.62-69.14,50.62-69.56-50.62-69.56-50.62V85.39c49.49,0,67.67-47.81,67.67-47.81"/></g></svg>