<svg xmlns="http://www.w3.org/2000/svg" viewBox="0 0 300 300"><defs><style>.cls-1{fill:#9d8be8;}.cls-1,.cls-2,.cls-3,.cls-4{stroke:#5c28ff;stroke-miterlimit:10;}.cls-1,.cls-3,.cls-4{stroke-width:3px;}.cls-2{fill:#5c28ff;stroke-width:5px;}.cls-3{fill:#fff;}.cls-4{fill:none;}</style></defs><g id="Capa_12" data-name="Capa 12"><path class="cls-1" d="M122.59,166.45H19.93s-10.53.1-10.53-9.27V16.33s-.07-8.17,9.28-8.17H191.27S197,8,197,13.24V32.33"/><polygon class="cls-2" points="78.27 55.13 78.27 119.47 122.59 90.86 122.59 83.74 78.27 55.13"/><path class="cls-3" d="M170.12,198.1H133s-10.43,1.74-10.43-9.91V96.34c0-9.25,5.8-64.34,66.72-64.32,62.49,0,71.88,56.63,71.88,64.32v92.2s1.74,9.66-7.48,9.66H214.53"/><path class="cls-1" d="M290.6,291.84V264.71c0-6.61-.28-23.21-25-30.61l-31.3-9.74s-2.38,45.92-41.19,45.92-41.18-45.92-41.18-45.92l-31.3,9.74c-25.29,7.48-25.27,24-25,30.61v27.13"/><polyline class="cls-4" points="151.89 224.37 170.12 218.34 170.12 190.97"/><polyline class="cls-4" points="234.26 224.37 214.53 218.92 214.53 190.97"/><path class="cls-3" d="M147.86,113v41.28s.7,41,42.9,41,46-41.16,46-41.16V113S191,120.22,174.3,96.34C174.3,96.34,164.79,112.57,147.86,113Z"/></g></svg>