<svg xmlns="http://www.w3.org/2000/svg" viewBox="0 0 300 300"><defs><style>.cls-1{fill:#f2a100;stroke:#000;stroke-linejoin:round;stroke-width:4px;}</style></defs><g id="Capa_5" data-name="Capa 5"><path class="cls-1" d="M59.9,5.37C-4.72,77.68-13.95,217.09,94.68,294.63,235,290,292.8,176.46,287.73,68.45L173.46,37.37Z"/><path class="cls-1" d="M61.06,106.3A83.88,83.88,0,0,1,125.91,122"/><path class="cls-1" d="M167.92,133.07a91.33,91.33,0,0,1,61.85,16.16"/><path class="cls-1" d="M179,208.08c-2.38,2.87-17.46,20.45-42.93,21.47-4.79.19-25,.4-41.55-15.23a57.56,57.56,0,0,1-17.08-33.24s32.32,15.93,47.09,19.39S179,208.08,179,208.08Z"/></g></svg>