<svg xmlns="http://www.w3.org/2000/svg" viewBox="0 0 300 300"><defs><style>.cls-1{fill:#4d4d4d;}.cls-1,.cls-2,.cls-3,.cls-4,.cls-5{stroke:#000;}.cls-1,.cls-3,.cls-4,.cls-5{stroke-miterlimit:10;stroke-width:5px;}.cls-2{fill:#ffdbc4;stroke-linejoin:round;stroke-width:4px;}.cls-3{fill:lime;}.cls-4{fill:#aaa;}.cls-5{fill:none;}</style></defs><g id="Capa_8" data-name="Capa 8"><path class="cls-1" d="M70.55,64.05s73-82.19,157.8,0v74.79H70.55Z"/><polygon class="cls-2" points="126.78 217.76 173.33 217.76 173.33 262.33 126.78 263.2 126.78 217.76"/><path class="cls-3" d="M241.87,294.22H57.5c-4.93-59.14,25.8-78.27,45.22-82.91h24.06v27.25c-1.55,23.88,37.26,33.78,46.06,4.29l.62-31.54h21.45C253.47,231.6,241.29,278,241.87,294.22Z"/><path class="cls-2" d="M70.55,127.53s49.57,11.31,107.84-28.7c0,0,26.52,23.92,44.78,19.57v45.66c-43.48,108.71-149.15,37.4-152.62,0Z"/><path class="cls-4" d="M78.08,165.36V90.57S53,96.08,53,114.49v30s1.3,11.74,11.55,17.61A26.68,26.68,0,0,0,78.08,165.36Z"/><path class="cls-4" d="M64.56,162.1l.33,11.53c.65,12.32,10,20.33,21.6,21.16h26.67a4.62,4.62,0,0,0,4.78,4.93h20c4,0,4.2-4.21,4.2-4.21v-9.06c0-4.34-5-4.78-5-4.78H119.39c-6.16,0-6.23,5.51-6.23,5.51H88.86c-19,0-15.77-21.66-15.77-21.66Z"/><path class="cls-5" d="M113.16,187.18v0Z"/><path class="cls-4" d="M221.92,165.36V90.57S247,96.08,247,114.49v30s-1.3,11.74-11.55,17.61A26.68,26.68,0,0,1,221.92,165.36Z"/><path class="cls-4" d="M71.27,92.81c0-9.63,1.67-75.36,78.73-77.47,79.48,3.05,78.73,67.84,78.73,77.47L238.39,97C240.54,40.86,213,7.73,150,5.78,90.55,8.39,60.46,40.86,62.61,97Z"/></g></svg>