<svg xmlns="http://www.w3.org/2000/svg" viewBox="0 0 300 300"><defs><style>.cls-1,.cls-6{fill:#ff0;}.cls-1,.cls-2,.cls-3,.cls-4,.cls-5,.cls-6,.cls-7,.cls-8,.cls-9{stroke:#000;}.cls-1,.cls-10,.cls-3,.cls-4,.cls-7,.cls-8,.cls-9{stroke-miterlimit:10;}.cls-1,.cls-10,.cls-7,.cls-8,.cls-9{stroke-width:5px;}.cls-2{fill:#ffdbc4;}.cls-2,.cls-5,.cls-6{stroke-linejoin:round;}.cls-2,.cls-3,.cls-4,.cls-5,.cls-6{stroke-width:4px;}.cls-3{fill:#a3a3a3;}.cls-4{fill:#1e1e1d;}.cls-5,.cls-9{fill:red;}.cls-10,.cls-5,.cls-6{stroke-linecap:round;}.cls-7{fill:#fcee21;}.cls-8{fill:#ccc;}.cls-10{fill:none;stroke:#ff0;}</style></defs><g id="Capa_9" data-name="Capa 9"><path class="cls-1" d="M77.67,140l64.21,18.64L205,140l-8.94-59.58V48.57S186.12,6.72,144,6.72,88.28,45.38,88.28,45.38v37.3Z"/><path class="cls-2" d="M76.46,161.36l45.48-20V130.13h40v10.31l51.85,24s18.2,9.7,18.2,22.43v23.65L76.46,222"/><path class="cls-3" d="M55.17,125,40,152.58v92.76l7.58,14.55V288.7c-.16,6,15.08,6.21,15.08,0V258.76l8.19-15V152.58Z"/><path class="cls-4" d="M29,258.3H81.49c6.59,0,6.93-15.46-.8-15.46H29C22.87,242.84,21.88,258.3,29,258.3Z"/><polygon class="cls-5" points="77.84 226.86 92.49 245.28 92.49 270.22 190.78 270.22 190.78 215.79 175.58 204.42 138.39 226.86 102.94 204.19 77.84 226.86"/><path class="cls-6" d="M77.84,226.86c-.38-.91,0-20.92,0-20.92l24-18.8L137.6,207l38-19.86L205,209l-12.66,8.79-16.78-13.34-37.19,22.44-35.45-22.67Z"/><path class="cls-7" d="M150.82,269.84c0-.91,1.14-60.72,63.9-60.72s57.54,60.72,57.54,60.72Z"/><path class="cls-8" d="M172.2,269.84S169,229.59,212,229.59s39.57,40.25,39.57,40.25Z"/><path class="cls-2" d="M87.37,81l54.51-42.75,55,42.75s5.46,56.4-54.73,56.4S87.37,81,87.37,81Z"/><polygon class="cls-9" points="86.47 38.87 124.37 38.87 141.88 54.94 160.15 38.87 197.14 38.87 197.14 54.94 161.66 54.94 141.88 71.92 121.64 55.39 86.47 55.39 86.47 38.87"/><line class="cls-10" x1="239.44" y1="54.03" x2="239.44" y2="74.64"/><line class="cls-10" x1="228.06" y1="64.34" x2="249.29" y2="64.34"/><line class="cls-10" x1="266.12" y1="31.44" x2="266.12" y2="52.06"/><line class="cls-10" x1="254.75" y1="41.75" x2="275.97" y2="41.75"/></g></svg>