<svg xmlns="http://www.w3.org/2000/svg" viewBox="0 0 300 300"><defs><style>.cls-1{fill:#9d8be8;}.cls-1,.cls-2,.cls-3{stroke:#5c28ff;stroke-miterlimit:10;stroke-width:5px;}.cls-2{fill:none;}.cls-3{fill:#fff;}</style></defs><g id="Capa_13" data-name="Capa 13"><path class="cls-1" d="M66.19,221.5V203.89a11.3,11.3,0,0,1,9-11.07l50.86-10.36s4.11,17.08,23.61,17.08,23.6-17.08,23.6-17.08l50.86,10.36a11.29,11.29,0,0,1,9,11.07V221.5"/><polyline class="cls-2" points="126.09 182.46 126.09 152.65 173.8 152.65 173.8 182.46"/><path class="cls-3" d="M103.87,76c3.76-6.31,15.65-13,39.23-5.7,19.77,6.14,35.86,6.32,52.92-2.5l.88-.47a82,82,0,0,1,9.53,43.84s-9.32,47.7-56.73,47.7-55.86-49.06-55.86-49.06S92.07,95.72,103.87,76Z"/><path class="cls-2" d="M93.84,109.82s-16-24.67-4.2-60.45c12.87-34.56,67.69-26.63,86.19-23.58,11.08,2,19.92.41,20.74-11.38,0,0-2.16-19.92,10.3,11.38s-10.85,42-10.85,42"/><path class="cls-2" d="M206.43,111.18s15.64-33.62,4.11-60.45l-1.27-1.86"/><path class="cls-2" d="M33.12,291.84V252.4S31,221.5,66.19,221.5h167s33.7-1.22,33.7,32.12v38.22"/><circle class="cls-1" cx="150.31" cy="276.76" r="8.64"/></g></svg>