<svg xmlns="http://www.w3.org/2000/svg" viewBox="0 0 300 300"><defs><style>.cls-1{fill:#b2b2b1;stroke:#0a0a0a;stroke-linejoin:round;stroke-width:4px;}</style></defs><g id="Capa_4" data-name="Capa 4"><path class="cls-1" d="M62.81,272.34,45.23,252.48a8.36,8.36,0,0,1-.79-9.44L126.3,88.52c1.27,5.42,7.41,29,30.38,42.47,20.26,11.93,40.9,8.58,47,7.36L97.29,277a8.35,8.35,0,0,1-9,3.2l-25.53-7.9q-7.23,11.15-14.47,22.29Z"/><path class="cls-1" d="M256.54,69.67a60.66,60.66,0,0,0-88.92-57.26Z"/><path class="cls-1" d="M135.34,64.64a60.66,60.66,0,0,0,87.79,55.64L179,92.4Z"/><path class="cls-1" d="M186.47,78.44q25.25,16.14,50.38,32.44a60.76,60.76,0,0,0,16.47-25L154.21,22a60.95,60.95,0,0,0-16.09,25.82C153.58,59,170.39,68.17,186.47,78.44Z"/></g></svg>