<svg id="Capa_1" data-name="Capa 1" xmlns="http://www.w3.org/2000/svg" viewBox="0 0 300 300"><defs><style>.cls-1{fill:#bdb6ff;}.cls-2,.cls-3,.cls-7{fill:none;stroke:#5c28ff;}.cls-2,.cls-3{stroke-miterlimit:10;stroke-width:5px;}.cls-3{stroke-dasharray:20.13 20.13;}.cls-4{fill:#8e88ff;}.cls-5{fill:#5c28ff;}.cls-6{fill:#d8d4ff;}.cls-7{stroke-linecap:round;stroke-linejoin:round;stroke-width:3px;}</style></defs><rect class="cls-1" x="6.43" y="32.54" width="201.15" height="201.15"/><polyline class="cls-2" points="207.59 223.7 207.59 233.7 197.59 233.7"/><line class="cls-3" x1="177.46" y1="233.7" x2="26.5" y2="233.7"/><polyline class="cls-2" points="16.43 233.7 6.43 233.7 6.43 223.7"/><line class="cls-3" x1="6.43" y1="203.57" x2="6.43" y2="52.61"/><polyline class="cls-2" points="6.43 42.54 6.43 32.54 16.43 32.54"/><line class="cls-3" x1="36.56" y1="32.54" x2="187.53" y2="32.54"/><polyline class="cls-2" points="197.59 32.54 207.59 32.54 207.59 42.54"/><line class="cls-3" x1="207.59" y1="62.67" x2="207.59" y2="213.63"/><path class="cls-4" d="M126.17,266a18.61,18.61,0,0,1-18.59-18.59V140.24a18.61,18.61,0,0,1,18.59-18.59h27.38l20.11-20.09,52.37,0,20,20h27.45a18.6,18.6,0,0,1,18.58,18.59V247.37A18.6,18.6,0,0,1,273.48,266Z"/><path class="cls-5" d="M174.28,103.06l51.13,0,12.45,12.48,6.67,6.68.88.88h28.07a17.11,17.11,0,0,1,17.09,17.09V247.37a17.11,17.11,0,0,1-17.09,17.09H126.17a17.11,17.11,0,0,1-17.09-17.09V140.24a17.11,17.11,0,0,1,17.09-17.09h28l.88-.88,19.23-19.21m-1.24-3-20.11,20.09H126.17a20.09,20.09,0,0,0-20.09,20.09V247.37a20.1,20.1,0,0,0,20.09,20.09H273.48a20.1,20.1,0,0,0,20.09-20.09V140.24a20.09,20.09,0,0,0-20.09-20.09H246.65l-20-20-53.61,0Z"/><circle class="cls-6" cx="199.82" cy="190.46" r="56.3" transform="translate(-57.68 90.97) rotate(-22.5)"/><path class="cls-5" d="M199.82,135.66A54.8,54.8,0,1,1,145,190.46a54.86,54.86,0,0,1,54.79-54.8m0-3a57.8,57.8,0,1,0,57.8,57.8,57.79,57.79,0,0,0-57.8-57.8Z"/><path class="cls-7" d="M278.16,138.23h0Z"/></svg>