<svg xmlns="http://www.w3.org/2000/svg" viewBox="0 0 300 300"><defs><style>.cls-1{fill:#ffdbc4;}.cls-1,.cls-2,.cls-3,.cls-4{stroke:#000;stroke-linejoin:round;stroke-width:4px;}.cls-2{fill:aqua;}.cls-3{fill:#8c6239;}.cls-4{fill:none;}</style></defs><g id="Capa_6" data-name="Capa 6"><path class="cls-1" d="M47.28,294H252.72V249.59s-2.17-27.58-33-33.8H184.58V187.67a70,70,0,0,1-34.5,8.38s-21-.17-34.45-8.38v27.85H84s-30.42,1.62-36.71,33.53Z"/><path class="cls-2" d="M223.41,294.44V216.67l-32.77-1.15v23C183.52,271.22,149,269.19,149,269.19c-33-1.35-38.13-33.93-38.13-33.93V215.52l-34.4,1.42V294Z"/><path class="cls-3" d="M158.13,82.42l3.93,0c14.78-.1,29.56-.36,44.34-.46,5.68,0,11.4.12,17.11.24V61.94c0-28.4-34.07-33.26-34.07-33.26V5.56H150.08c-70.6,0-73.59,57.19-73.59,57.19V82.42Z"/><path class="cls-1" d="M76.49,104.24v26.11c0,30.28,39.14,57.32,39.14,57.32,33.75,16.69,60.65,3.93,69,0,38.83-24.07,39.44-57,39.44-57V104.24Z"/><path class="cls-4" d="M74.93,103.35l150.17-.1a3.38,3.38,0,0,0,3.38-3.38V86.65a3.38,3.38,0,0,0-3.38-3.38H74.93a3.39,3.39,0,0,0-3.38,3.38V100A3.39,3.39,0,0,0,74.93,103.35Z"/></g></svg>