<svg xmlns="http://www.w3.org/2000/svg" viewBox="0 0 300 300"><defs><style>.cls-1{fill:#7c7c7c;}.cls-2{fill:none;stroke:#7c7c7c;stroke-linecap:round;stroke-miterlimit:10;stroke-width:13px;}</style></defs><g id="Capa_16" data-name="Capa 16"><path class="cls-1" d="M104.87,23.63a78.46,78.46,0,1,1-78.46,78.46,78.55,78.55,0,0,1,78.46-78.46m0-20a98.46,98.46,0,1,0,98.46,98.46A98.46,98.46,0,0,0,104.87,3.63Z"/><path class="cls-2" d="M52,136.83c-16.44-28.08-12.84-94.68,51.88-99.16l1-.2"/><path class="cls-1" d="M164.84,180.19l21.33,23.24s-5.64,12,.6,18.48l70.56,72.84c9.12,6.48,40.56-6.84,35.76-34.44l-70.92-73.68s-7.92-7.2-18.24-.6l-22.27-22.3Z"/></g></svg>